<?xml version="1.0" encoding="UTF-8" standalone="no"?>
<!-- Created with Inkscape (http://www.inkscape.org/) -->

<svg
   xmlns:dc="http://purl.org/dc/elements/1.1/"
   xmlns:cc="http://creativecommons.org/ns#"
   xmlns:rdf="http://www.w3.org/1999/02/22-rdf-syntax-ns#"
   xmlns:svg="http://www.w3.org/2000/svg"
   xmlns="http://www.w3.org/2000/svg"
   xmlns:sodipodi="http://sodipodi.sourceforge.net/DTD/sodipodi-0.dtd"
   xmlns:inkscape="http://www.inkscape.org/namespaces/inkscape"
   width="210mm"
   height="297mm"
   viewBox="0 0 210 297"
   version="1.1"
   id="svg2640"
   inkscape:version="0.92.3 (unknown)"
   sodipodi:docname="footer_icons.svg">
  <defs
     id="defs2634" />
  <sodipodi:namedview
     id="base"
     pagecolor="#ffffff"
     bordercolor="#666666"
     borderopacity="1.0"
     inkscape:pageopacity="0.0"
     inkscape:pageshadow="2"
     inkscape:zoom="0.1223585"
     inkscape:cx="-1061.5719"
     inkscape:cy="1410.9027"
     inkscape:document-units="mm"
     inkscape:current-layer="layer1"
     showgrid="false"
     inkscape:snap-global="false"
     inkscape:window-width="1366"
     inkscape:window-height="717"
     inkscape:window-x="0"
     inkscape:window-y="0"
     inkscape:window-maximized="1" />
  <metadata
     id="metadata2637">
    <rdf:RDF>
      <cc:Work
         rdf:about="">
        <dc:format>image/svg+xml</dc:format>
        <dc:type
           rdf:resource="http://purl.org/dc/dcmitype/StillImage" />
        <dc:title />
      </cc:Work>
    </rdf:RDF>
  </metadata>
  <g
     inkscape:label="Layer 1"
     inkscape:groupmode="layer"
     id="layer1">
    <path
       style="opacity:1;fill:#cccccc;fill-opacity:1;stroke:#cacaca;stroke-width:0;stroke-linecap:square;stroke-linejoin:round;stroke-miterlimit:4;stroke-dasharray:none;stroke-opacity:1"
       d="m 47.996548,-496.99105 a 34.999998,34.999998 0 0 0 -34.99993,34.99993 34.999998,34.999998 0 0 0 34.99993,34.99993 34.999998,34.999998 0 0 0 34.99993,-34.99993 34.999998,34.999998 0 0 0 -34.99993,-34.99993 z m -20.72018,13.67618 c 0.317,0 0.66919,0.0711 0.9157,0.32038 0.24659,0.24929 0.42272,0.49861 0.42272,0.85474 0,0.49858 -0.59883,1.24632 -1.76114,2.42154 -4.75459,4.62971 -7.14944,10.32815 -7.14944,17.16588 0,7.5856 2.50095,13.71087 7.39645,18.4118 0.9861,0.92596 1.51413,1.67402 1.51413,2.27946 0,0.32052 -0.17613,0.67622 -0.42272,0.92551 -0.24651,0.24929 -0.5987,0.42736 -0.9157,0.42736 -1.16221,0 -2.74704,-1.35305 -4.82505,-4.02402 -4.015,-4.98586 -5.91693,-11.04014 -5.91693,-18.19839 0,-6.65967 2.25415,-12.53582 6.83266,-17.73534 1.65528,-1.92312 2.9936,-2.84892 3.90932,-2.84892 z m 41.48841,0.0356 c 1.09181,0 2.74704,1.35307 4.82502,4.02404 3.9093,5.0927 5.91696,11.14698 5.91696,18.19839 0,6.65964 -2.25364,12.53582 -6.83215,17.73534 -1.65539,1.92312 -2.99413,2.84892 -3.90983,2.84892 -0.31699,0 -0.66921,-0.0711 -0.91569,-0.32038 -0.24652,-0.24929 -0.4222,-0.60552 -0.4222,-0.92604 0,-0.49861 0.59841,-1.24624 1.76062,-2.35024 4.75459,-4.62973 7.14941,-10.32817 7.14941,-17.1659 0,-7.58558 -2.50042,-13.71084 -7.39592,-18.41178 -0.98611,-0.92596 -1.51411,-1.67404 -1.51411,-2.27946 0,-0.32052 0.17568,-0.67622 0.4222,-0.92551 0.24648,-0.24932 0.5987,-0.42738 0.91569,-0.42738 z m -26.13276,2.35026 c 1.05648,0.0712 6.692,1.13943 8.1008,7.44294 0.63389,2.84906 0.73943,6.5531 2.35953,6.5531 1.37361,0 2.53598,-1.10421 0.63407,-4.3806 -0.63399,-1.06842 -0.0705,-1.63804 2.14821,0.56999 2.21887,2.17233 4.43743,4.80793 4.43743,10.68409 0,5.62689 -3.24011,8.65401 -5.31802,10.14976 -0.45789,0.32051 -1.16207,0.74744 -1.47897,0.88987 -0.66931,0.32052 -1.30328,-0.35563 -0.81028,-0.85421 0.7748,-0.85471 3.41632,-3.09882 3.41632,-6.30401 0,-3.20517 -1.72577,-5.23481 -2.53576,-5.23481 -0.38741,0 0.24677,1.13972 0.38759,2.20813 0.10567,1.06839 -1.16229,1.63796 -2.28929,1.49551 -1.12709,-0.14246 -1.83147,-1.42431 -1.30328,-3.63234 0.4227,-1.74503 -0.73954,-3.56168 -2.11304,-4.52323 -1.37351,-0.96155 -1.90177,-0.1424 -1.12707,0.46302 0.73972,0.60542 1.0565,2.70679 -0.24649,4.3806 -1.30321,1.63822 -4.47313,2.88454 -4.47313,6.23218 0,3.63254 1.97229,5.94746 3.69798,6.37482 0.77491,0.17806 0.49329,0.89019 -0.10541,0.74776 -4.29681,-1.13964 -8.73437,-4.98573 -8.73437,-10.86188 0,-5.41319 7.04403,-11.25379 7.04403,-16.48892 0,-3.02712 -2.3952,-4.70101 -2.3952,-4.70101 -1.26791,-0.53419 -0.31705,-1.17517 0.70435,-1.21076 z m -9.09042,35.45314 h 28.81945 c 0.8813,0 1.76268,0.71289 1.76268,1.78231 0,1.06939 -0.70509,1.78231 -1.76268,1.78231 h -28.81945 c -0.88128,0 -1.76268,-0.71292 -1.76268,-1.78231 0,-0.98031 0.70509,-1.78231 1.76268,-1.78231 z"
       id="path3040"
       inkscape:connector-curvature="0"
       inkscape:export-xdpi="32.657146"
       inkscape:export-ydpi="32.657146" />
    <path
       inkscape:connector-curvature="0"
       id="path8003"
       d="m 222.15169,-284.46556 c -2.24591,-0.25734 -6.01085,-1.07737 -6.00866,-1.30859 0,-0.0518 0.13835,-0.2977 0.30562,-0.54497 0.61524,-0.90734 1.93021,-3.48197 2.45714,-4.81259 0.29834,-0.75186 1.13924,-3.67692 1.86872,-6.49931 l 1.32622,-5.13141 0.51158,0.70991 c 1.27093,1.76406 4.01921,3.18009 6.85334,3.53101 2.04344,0.25354 4.95331,-0.13565 7.12424,-0.94911 6.5573,-2.46031 11.0478,-8.72312 12.53176,-17.47683 0.39044,-2.30563 0.46531,-6.23251 0.15359,-8.08895 -1.80699,-10.77222 -11.93026,-17.86324 -24.16066,-16.92419 -6.76619,0.51944 -12.11317,2.82209 -16.34131,7.0368 -1.91326,1.90736 -3.21711,3.71209 -4.26702,5.9064 -1.3179,2.75461 -1.86743,4.95202 -1.98953,7.9537 -0.13327,3.27198 0.32437,5.86117 1.46361,8.28819 1.0568,2.25072 2.22218,3.62708 4.08878,4.83012 1.58562,1.02147 2.60705,1.13011 3.01546,0.32023 0.33143,-0.65739 1.04215,-3.74379 0.94745,-4.11424 -0.0459,-0.18697 -0.36903,-0.70941 -0.71361,-1.16239 -0.85326,-1.12102 -1.57646,-2.66542 -1.87531,-4.0049 -0.37239,-1.66958 -0.23293,-4.99707 0.29526,-6.99913 1.46811,-5.57263 5.72596,-9.92507 11.27846,-11.52867 1.99831,-0.57736 3.10913,-0.72406 5.49069,-0.72486 3.28389,0 5.57585,0.52504 8.15826,1.87279 0.93601,0.48816 1.57766,0.98439 2.67233,2.06555 1.27562,1.25965 1.5297,1.6028 2.21572,2.99501 1.32463,2.68874 1.69586,4.9863 1.39859,8.65325 -0.59897,7.38602 -3.29293,13.01137 -7.29241,15.22731 -4.41945,2.44855 -9.46956,0.0867 -9.44105,-4.41384 0,-1.07687 0.16128,-1.69897 1.61972,-6.52841 1.58362,-5.24234 1.85983,-7.19166 1.28169,-9.04313 -0.54645,-1.7505 -1.48007,-2.65237 -3.20133,-3.09178 -1.86853,-0.4772 -3.82146,0.18686 -5.35515,1.82136 -1.02262,1.08963 -1.79544,2.55918 -2.20364,4.18949 -0.52929,2.11497 -0.25348,5.7587 0.59002,7.76912 0.20742,0.49275 0.1178,0.92489 -2.09717,10.22566 -1.27183,5.34121 -2.41526,10.39379 -2.54038,11.22798 -0.12549,0.83409 -0.22788,2.50207 -0.22788,3.70661 0,1.84748 -0.0359,2.18983 -0.22794,2.18983 -0.35048,0 -3.18002,-1.50313 -4.82474,-2.56327 -8.85044,-5.70338 -14.69551,-15.11309 -15.8241,-25.47359 -0.20484,-1.86611 -0.20484,-5.55918 0,-7.42509 0.98335,-9.02559 5.71797,-17.6648 12.7636,-23.28905 5.34098,-4.26394 11.5771,-6.83638 18.40203,-7.59113 1.73743,-0.19205 5.62388,-0.19205 7.36141,0 8.10898,0.89687 15.43323,4.37845 21.10653,10.0332 5.63017,5.6118 9.20731,13.02493 10.05917,20.84698 0.20484,1.86591 0.20484,5.55898 0,7.42509 -0.85186,7.82185 -4.429,15.23519 -10.05917,20.84678 -5.6733,5.65475 -12.99755,9.13633 -21.10653,10.0331 -1.59738,0.17671 -5.98662,0.16654 -7.58699,-0.0259 z"
       style="fill:#cccccc;fill-opacity:1;stroke-width:2.56043482"
       inkscape:export-xdpi="32.547726"
       inkscape:export-ydpi="32.547726" />
    <path
       style="display:inline;opacity:1;fill:#cccccc;fill-opacity:1;stroke-width:2.6000433"
       d="m 332.98132,-37.907214 c -11.55771,-1.30451 -21.92725,-8.47202 -27.20121,-18.80132 -1.81114,-3.546663 -2.8982,-6.899123 -3.53107,-10.889153 -0.42252,-2.66367 -0.45066,-7.29179 -0.0597,-9.92772 1.17483,-7.92775 4.68231,-14.82282 10.34255,-20.32999 1.91437,-1.86285 3.06368,-2.786733 5.24934,-4.220273 4.26422,-2.79685 9.10948,-4.6172 14.36005,-5.39504 2.63621,-0.39044 7.26555,-0.36231 9.9299,0.0607 11.56126,1.83329 21.24722,8.908003 26.27266,19.189833 2.36857,4.84642 3.39915,9.02085 3.55179,14.38906 0.17421,6.1401 -0.9341,11.31047 -3.55442,16.578703 -4.8738,9.79737 -14.07793,16.85315 -24.66591,18.90909 -2.93452,0.56958 -7.76834,0.76712 -10.69386,0.4369 z m -5.04153,-30.225033 v -11.91302 h -3.89556 -3.89555 v 11.91302 11.913433 h 3.89555 3.89556 z m 12.37572,4.54392 v -7.3692 l 0.35672,-0.76389 c 0.76981,-1.64778 1.92146,-2.50548 3.53883,-2.63512 1.98433,-0.15859 3.3453,0.6728 4.06036,2.48251 0.36067,0.91225 0.36259,0.94807 0.41199,8.2857 l 0.0486,7.369513 h 3.89475 3.89475 l -0.0526,-8.285903 -0.0526,-8.2857 -0.42494,-1.37141 c -0.54186,-1.74919 -1.04505,-2.67176 -2.05234,-3.76243 -1.69938,-1.83977 -3.6088,-2.61448 -6.45019,-2.61711 -1.38598,0 -1.9742,0.0678 -2.78654,0.32942 -1.39944,0.44954 -2.78643,1.42858 -3.66799,2.58908 l -0.72549,0.95505 v -1.68878 -1.68867 h -3.93372 l -3.93383,2e-4 0.0263,11.79846 c 0,6.48925 0.0283,11.849983 0.0385,11.913133 0.0263,0.0628 1.77468,0.11436 3.91712,0.11436 h 3.89576 v -7.369513 z m -14.20719,-20.22382 c 1.48771,-0.6642 2.30895,-1.97114 2.30895,-3.67499 0,-2.38607 -1.7431,-4.00987 -4.30694,-4.0125 -1.43204,0 -2.40299,0.37597 -3.27757,1.27364 -1.09,1.1192 -1.42597,2.55497 -0.96074,4.10743 0.26734,0.8919 1.355,2.02355 2.30774,2.40064 1.03159,0.40835 2.90375,0.36342 3.92856,-0.0931 z"
       id="path8025"
       inkscape:connector-curvature="0"
       inkscape:export-filename="/media/sean/Windows/Users/Sean/Desktop/Software_Development/CS353C[A] - Dr. Kevin Casey/Wireframe/graphics/pages_wireframe.jpg"
       inkscape:export-xdpi="32.657146"
       inkscape:export-ydpi="32.657146" />
    <g
       id="g2820"
       transform="matrix(0.71611253,0,0,0.71611253,-580.67967,-347.05702)"
       inkscape:export-xdpi="32.547726"
       inkscape:export-ydpi="32.547726"
       style="fill:#cccccc">
      <g
         id="g2760"
         style="fill:#cccccc">
        <g
           id="g2758"
           style="fill:#cccccc">
          <path
             id="path2750"
             d="m 39.337,38.729 c 0,-4.611 -3.137,-4.611 -3.137,-4.611 H 34.539 23.294 v 9.894 H 35.4 c 2.092,-10e-4 3.937,-0.67 3.937,-5.283 z"
             inkscape:connector-curvature="0"
             style="fill:#cccccc" />
          <path
             id="path2752"
             d="M 36.201,50.846 H 23.294 v 11.85 h 12.311 c 1.852,-0.053 5.27,-0.633 5.27,-5.76 0,-6.152 -4.674,-6.09 -4.674,-6.09 z"
             inkscape:connector-curvature="0"
             style="fill:#cccccc" />
          <path
             id="path2754"
             d="m 69.243,44.011 c -6.849,0 -7.804,6.835 -7.804,6.835 h 14.565 c 10e-4,0 0.088,-6.835 -6.761,-6.835 z"
             inkscape:connector-curvature="0"
             style="fill:#cccccc" />
          <path
             id="path2756"
             d="M 48.875,0 C 21.882,0 0,21.883 0,48.875 0,75.867 21.882,97.75 48.875,97.75 75.868,97.75 97.75,75.867 97.75,48.875 97.75,21.883 75.868,0 48.875,0 Z m 10.656,28.848 h 18.294 v 5.46 H 59.531 Z m -9.246,28.638 c 0,13.533 -14.084,13.088 -14.084,13.088 H 23.294 22.915 13.128 V 26.236 h 9.787 0.379 12.906 c 7.012,0 12.547,3.871 12.547,11.805 0,7.935 -6.766,8.438 -6.766,8.438 8.919,0 8.304,11.007 8.304,11.007 z m 19.045,6.993 c 7.37,0 7.109,-4.77 7.109,-4.77 h 7.803 c 0,12.659 -15.172,11.792 -15.172,11.792 -18.207,0 -17.036,-16.95 -17.036,-16.95 0,0 -0.014,-17.034 17.034,-17.034 17.947,0 15.434,19.245 15.434,19.245 H 61.527 c 0,8.239 7.803,7.717 7.803,7.717 z"
             inkscape:connector-curvature="0"
             style="fill:#cccccc" />
        </g>
      </g>
      <g
         id="g2762"
         style="fill:#cccccc" />
      <g
         id="g2764"
         style="fill:#cccccc" />
      <g
         id="g2766"
         style="fill:#cccccc" />
      <g
         id="g2768"
         style="fill:#cccccc" />
      <g
         id="g2770"
         style="fill:#cccccc" />
      <g
         id="g2772"
         style="fill:#cccccc" />
      <g
         id="g2774"
         style="fill:#cccccc" />
      <g
         id="g2776"
         style="fill:#cccccc" />
      <g
         id="g2778"
         style="fill:#cccccc" />
      <g
         id="g2780"
         style="fill:#cccccc" />
      <g
         id="g2782"
         style="fill:#cccccc" />
      <g
         id="g2784"
         style="fill:#cccccc" />
      <g
         id="g2786"
         style="fill:#cccccc" />
      <g
         id="g2788"
         style="fill:#cccccc" />
      <g
         id="g2790"
         style="fill:#cccccc" />
    </g>
    <g
       transform="matrix(0.15961838,0,0,0.15961838,-204.70571,-447.27358)"
       id="g2900"
       inkscape:export-xdpi="32.547726"
       inkscape:export-ydpi="32.547726"
       style="fill:#cccccc">
      <g
         id="g2868"
         style="fill:#cccccc">
        <path
           inkscape:connector-curvature="0"
           d="M 409.132,114.573 C 389.524,80.977 362.927,54.379 329.334,34.773 295.736,15.166 259.057,5.365 219.271,5.365 c -39.781,0 -76.472,9.804 -110.063,29.408 -33.596,19.605 -60.192,46.204 -79.8,79.8 C 9.803,148.168 0,184.854 0,224.63 c 0,47.78 13.94,90.745 41.827,128.906 27.884,38.164 63.906,64.572 108.063,79.227 5.14,0.954 8.945,0.283 11.419,-1.996 2.475,-2.282 3.711,-5.14 3.711,-8.562 0,-0.571 -0.049,-5.708 -0.144,-15.417 -0.098,-9.709 -0.144,-18.179 -0.144,-25.406 l -6.567,1.136 c -4.187,0.767 -9.469,1.092 -15.846,1 -6.374,-0.089 -12.991,-0.757 -19.842,-1.999 -6.854,-1.231 -13.229,-4.086 -19.13,-8.559 -5.898,-4.473 -10.085,-10.328 -12.56,-17.556 l -2.855,-6.57 c -1.903,-4.374 -4.899,-9.233 -8.992,-14.559 -4.093,-5.331 -8.232,-8.945 -12.419,-10.848 l -1.999,-1.431 c -1.332,-0.951 -2.568,-2.098 -3.711,-3.429 -1.142,-1.331 -1.997,-2.663 -2.568,-3.997 -0.572,-1.335 -0.098,-2.43 1.427,-3.289 1.525,-0.859 4.281,-1.276 8.28,-1.276 l 5.708,0.853 c 3.807,0.763 8.516,3.042 14.133,6.851 5.614,3.806 10.229,8.754 13.846,14.842 4.38,7.806 9.657,13.754 15.846,17.847 6.184,4.093 12.419,6.136 18.699,6.136 6.28,0 11.704,-0.476 16.274,-1.423 4.565,-0.952 8.848,-2.383 12.847,-4.285 1.713,-12.758 6.377,-22.559 13.988,-29.41 -10.848,-1.14 -20.601,-2.857 -29.264,-5.14 -8.658,-2.286 -17.605,-5.996 -26.835,-11.14 -9.235,-5.137 -16.896,-11.516 -22.985,-19.126 -6.09,-7.614 -11.088,-17.61 -14.987,-29.979 -3.901,-12.374 -5.852,-26.648 -5.852,-42.826 0,-23.035 7.52,-42.637 22.557,-58.817 -7.044,-17.318 -6.379,-36.732 1.997,-58.24 5.52,-1.715 13.706,-0.428 24.554,3.853 10.85,4.283 18.794,7.952 23.84,10.994 5.046,3.041 9.089,5.618 12.135,7.708 17.705,-4.947 35.976,-7.421 54.818,-7.421 18.842,0 37.117,2.474 54.823,7.421 l 10.849,-6.849 c 7.419,-4.57 16.18,-8.758 26.262,-12.565 10.088,-3.805 17.802,-4.853 23.134,-3.138 8.562,21.509 9.325,40.922 2.279,58.24 15.036,16.18 22.559,35.787 22.559,58.817 0,16.178 -1.958,30.497 -5.853,42.966 -3.9,12.471 -8.941,22.457 -15.125,29.979 -6.191,7.521 -13.901,13.85 -23.131,18.986 -9.232,5.14 -18.182,8.85 -26.84,11.136 -8.662,2.286 -18.415,4.004 -29.263,5.146 9.894,8.562 14.842,22.077 14.842,40.539 v 60.237 c 0,3.422 1.19,6.279 3.572,8.562 2.379,2.279 6.136,2.95 11.276,1.995 44.163,-14.653 80.185,-41.062 108.068,-79.226 27.88,-38.161 41.825,-81.126 41.825,-128.906 -0.01,-39.771 -9.818,-76.454 -29.414,-110.049 z"
           id="path2866"
           style="fill:#cccccc" />
      </g>
      <g
         id="g2870"
         style="fill:#cccccc" />
      <g
         id="g2872"
         style="fill:#cccccc" />
      <g
         id="g2874"
         style="fill:#cccccc" />
      <g
         id="g2876"
         style="fill:#cccccc" />
      <g
         id="g2878"
         style="fill:#cccccc" />
      <g
         id="g2880"
         style="fill:#cccccc" />
      <g
         id="g2882"
         style="fill:#cccccc" />
      <g
         id="g2884"
         style="fill:#cccccc" />
      <g
         id="g2886"
         style="fill:#cccccc" />
      <g
         id="g2888"
         style="fill:#cccccc" />
      <g
         id="g2890"
         style="fill:#cccccc" />
      <g
         id="g2892"
         style="fill:#cccccc" />
      <g
         id="g2894"
         style="fill:#cccccc" />
      <g
         id="g2896"
         style="fill:#cccccc" />
      <g
         id="g2898"
         style="fill:#cccccc" />
    </g>
    <path
       style="opacity:1;fill:#cccccc;fill-opacity:1;stroke:#cacaca;stroke-width:0;stroke-linecap:square;stroke-linejoin:round;stroke-miterlimit:4;stroke-dasharray:none;stroke-opacity:1"
       d="m -364.74413,-437.49274 a 34.999998,34.999998 0 0 0 -34.99993,35.00045 34.999998,34.999998 0 0 0 34.99993,34.99993 34.999998,34.999998 0 0 0 34.99994,-34.99993 34.999998,34.999998 0 0 0 -34.99994,-35.00045 z m 0.94207,11.48664 c 2.5036,-0.0128 5.03995,0.26519 7.28482,0.82733 3.37837,0.846 6.32159,2.36136 8.82582,4.54443 0.41376,0.36069 1.40627,1.34748 1.75907,1.74873 3.32183,3.77806 4.82338,8.64573 4.46278,14.46734 -0.0861,1.39035 -0.26841,2.61025 -0.57568,3.85299 -0.72335,2.9257 -2.02758,5.29209 -4.00234,7.26157 -1.79295,1.78816 -3.83957,2.88689 -6.17843,3.31608 -0.8108,0.14877 -1.19116,0.17926 -2.20814,0.1788 -0.83281,-3.5e-4 -0.99642,-0.008 -1.33997,-0.0646 -1.42762,-0.23521 -2.48189,-0.74016 -3.38325,-1.61954 -0.65143,-0.63554 -1.0719,-1.29903 -1.3503,-2.13113 -0.12964,-0.38747 -0.2482,-0.95948 -0.27389,-1.32137 l -0.0191,-0.27027 -0.092,10e-4 c -0.0905,5.5e-4 -0.0943,0.007 -0.25011,0.40721 -0.20122,0.51775 -0.53512,1.20462 -0.78703,1.61799 -1.34213,2.20223 -3.22694,3.30366 -5.79708,3.38739 -2.03983,0.0665 -3.80478,-0.49374 -5.26118,-1.67018 -0.53883,-0.43525 -1.19425,-1.15183 -1.62108,-1.77199 -1.24806,-1.81343 -1.89111,-4.30362 -1.89034,-7.321 9.8e-4,-3.76634 0.86474,-7.02599 2.54042,-9.58804 1.45513,-2.22486 3.42559,-3.86436 5.49114,-4.56923 1.72884,-0.58996 3.7801,-0.6558 5.27566,-0.1695 0.40568,0.13191 1.01121,0.43826 1.30379,0.65939 0.67857,0.51288 1.212,1.25102 1.51463,2.09703 0.0728,0.20375 0.10668,0.26355 0.14936,0.26355 0.0304,0 0.0553,-0.006 0.0553,-0.014 0,-0.0733 0.27096,-2.76632 0.28112,-2.79414 0.0106,-0.0292 0.65992,-0.0372 3.11145,-0.0372 1.70397,0 3.098,0.0112 3.098,0.0248 0,0.0136 -0.0597,0.61687 -0.13281,1.341 -0.71708,7.09771 -1.11077,12.21514 -1.11156,14.4477 -7.5e-4,2.17111 0.44132,3.44844 1.34307,3.87883 0.29364,0.14015 0.51517,0.17729 0.93328,0.15658 0.81901,-0.0406 1.46205,-0.34844 2.14199,-1.02681 0.38137,-0.38047 0.621,-0.68962 0.90382,-1.16479 1.11279,-1.86948 1.70582,-4.27191 1.85311,-7.506 0.1807,-3.96725 -0.6021,-7.23639 -2.38796,-9.97355 -2.28867,-3.50785 -5.73059,-5.59974 -10.21126,-6.20634 -1.63063,-0.22074 -3.54457,-0.25445 -5.12733,-0.0899 -4.17563,0.4341 -7.74126,2.16908 -10.67327,5.194 -3.20201,3.30348 -5.03602,7.27391 -5.49267,11.89075 -0.14499,1.46576 -0.1451,3.23637 -5.3e-4,4.72736 0.41336,4.2637 1.98872,7.68627 4.74184,10.30066 0.77282,0.73389 1.79602,1.49616 2.72542,2.03037 2.03896,1.17206 4.48297,1.91535 7.20214,2.19004 1.97329,0.19934 4.20349,0.16755 6.26835,-0.0894 2.6162,-0.32557 4.96383,-0.97213 7.30962,-2.01331 0.23861,-0.10591 0.43889,-0.19275 0.44494,-0.19275 0.006,0 0.0109,1.21886 0.0109,2.70888 v 2.70939 l -0.31884,0.13436 c -1.8167,0.76517 -4.1632,1.34422 -6.67557,1.64744 -1.7915,0.21622 -4.25948,0.33023 -6.03166,0.27854 -7.03188,-0.2051 -12.61676,-2.55563 -16.7845,-7.06365 -2.99799,-3.24275 -4.75504,-7.37181 -5.2338,-12.30002 -0.0918,-0.94514 -0.11907,-1.58829 -0.11938,-2.83032 -4.5e-4,-1.63623 0.0702,-2.68289 0.27905,-4.13463 0.75235,-5.22849 3.04295,-9.78944 6.81149,-13.56403 3.23437,-3.23959 7.04268,-5.28965 11.57965,-6.23322 1.75461,-0.3649 3.68186,-0.55077 5.62911,-0.56068 z m -0.71625,15.74064 c -0.81031,0.007 -1.62078,0.27359 -2.29597,0.78031 -0.32012,0.24027 -0.87337,0.81464 -1.12036,1.16324 -0.69006,0.97395 -1.27389,2.24811 -1.64383,3.58738 -0.20137,0.72903 -0.35425,1.56323 -0.45164,2.46548 -0.0746,0.69082 -0.0748,2.54277 -5e-4,3.0856 0.15869,1.16211 0.4387,2.00688 0.90329,2.72334 0.60965,0.94016 1.38226,1.47884 2.33629,1.62885 0.24387,0.0384 1.04892,0.0129 1.31673,-0.0419 0.5175,-0.10566 1.02034,-0.31757 1.48156,-0.62322 0.12509,-0.0829 0.39796,-0.32259 0.62373,-0.54829 0.53398,-0.53383 0.85645,-0.99401 1.24592,-1.7787 0.81547,-1.64305 1.2622,-3.65665 1.3906,-6.26887 0.0864,-1.75719 -0.0187,-2.81249 -0.36947,-3.7207 -0.39139,-1.01341 -1.14138,-1.83682 -1.98749,-2.18178 -0.45673,-0.1862 -0.94263,-0.27509 -1.42886,-0.27078 z"
       id="path2923"
       inkscape:export-xdpi="32.547726"
       inkscape:export-ydpi="32.547726"
       inkscape:connector-curvature="0" />
  </g>
</svg>
